<?xml version="1.0" encoding="UTF-8"?>
<!DOCTYPE svg PUBLIC "-//W3C//DTD SVG 1.1//EN" "http://www.w3.org/Graphics/SVG/1.1/DTD/svg11.dtd">
<svg version="1.1" xmlns="http://www.w3.org/2000/svg" xmlns:xlink="http://www.w3.org/1999/xlink" x="0" y="0" width="600" height="600" viewBox="0, 0, 600, 600">
  <g id="Layer_1">
    <path d="M285.818,267.787 L417.23,349.368 L417.23,512.095 L286.105,594.927 L155.423,512.093 L155.423,349.379 L285.818,267.787 z M409.966,358.029 L166.11,510.262 L286.116,586.327 L409.966,508.092 L409.966,358.029 z M218.646,398.457 L162.69,433.419 L162.69,503.835 L218.646,468.904 L218.646,398.457 z M225.911,398.332 L225.911,464.368 L278.842,431.324 L225.911,398.332 z M289.198,355.64 L289.198,424.859 L344.711,390.203 L289.198,355.64 z M223.997,315.045 L162.69,353.407 L162.69,424.846 L281.315,350.732 L223.997,315.045 z M281.932,358.915 L257.135,374.408 L257.135,409.232 L281.932,424.688 L281.932,358.915 z M249.874,378.945 L229.235,391.841 L249.874,404.706 L249.874,378.945 z M285.834,276.351 L230.852,310.755 L351.041,385.58 L350.357,386.679 L406.796,351.445 L285.834,276.351 z" fill="#000000" fill-opacity="0.25"/>
    <path d="M140.45,5.072 L271.131,87.907 L271.131,250.62 L140.737,332.213 L9.325,250.632 L9.325,87.905 L140.45,5.072 z M77.546,212.57 L19.832,248.6 L140.72,323.649 L198.198,287.683 L77.546,212.57 z M263.864,175.245 L147.81,247.753 L205.052,283.394 L263.864,246.593 L263.864,175.245 z M140.438,13.673 L16.588,91.908 L16.588,242.062 L260.517,89.784 L140.438,13.673 z M137.306,175.264 L84.415,208.282 L137.306,241.214 L137.306,175.264 z M144.571,175.435 L144.571,241.208 L169.369,225.714 L169.369,190.891 L144.571,175.435 z M176.63,195.417 L176.63,221.178 L197.269,208.282 L176.63,195.417 z M200.593,135.755 L147.662,168.799 L200.593,201.791 L200.593,135.755 z M263.864,96.256 L207.858,131.219 L207.858,201.666 L263.864,166.673 L263.864,96.256 z" fill="#000000" fill-opacity="0.25"/>
  </g>
</svg>
