<?xml version="1.0" encoding="UTF-8"?>
<!DOCTYPE svg PUBLIC "-//W3C//DTD SVG 1.1//EN" "http://www.w3.org/Graphics/SVG/1.1/DTD/svg11.dtd">
<svg version="1.1" xmlns="http://www.w3.org/2000/svg" xmlns:xlink="http://www.w3.org/1999/xlink" x="0" y="0" width="220.704" height="275.781" viewBox="0, 0, 220.704, 275.781">
  <g id="Layer_1" transform="translate(-69.726, -62.792)">
    <path d="M75.852,265.372 L179.901,331.323 L284.307,265.37 L284.307,134.976 L179.663,70.012 L75.852,134.97 z M179.891,338.573 L69.726,268.743 L69.726,131.575 L179.649,62.792 L290.43,131.565 L290.43,268.745 z" fill="#000000"/>
    <path d="M129.19,233.966 L123.065,233.966 L123.065,167.192 L129.19,167.192 z" fill="#000000"/>
    <path d="M231.44,169.95 L124.469,103.348 L127.708,98.151 L234.679,164.747 z" fill="#000000"/>
    <path d="M155.512,183.622 L149.391,183.622 L149.391,150.811 L155.512,150.811 z" fill="#000000"/>
    <path d="M182.541,200.699 L176.416,200.699 L176.416,133.985 L182.541,133.985 z" fill="#000000"/>
    <path d="M178.049,203.192 L124.465,169.793 L127.701,164.592 L181.288,197.993 z" fill="#000000"/>
    <path d="M74.493,269.771 L71.252,264.577 L285.746,130.673 L288.988,135.867 z" fill="#000000"/>
    <path d="M74.496,203.19 L71.248,197.993 L177.855,131.387 L181.1,136.583 z" fill="#000000"/>
  </g>
</svg>
