<?xml version="1.0" encoding="UTF-8"?>
<!DOCTYPE svg PUBLIC "-//W3C//DTD SVG 1.1//EN" "http://www.w3.org/Graphics/SVG/1.1/DTD/svg11.dtd">
<svg version="1.1" xmlns="http://www.w3.org/2000/svg" xmlns:xlink="http://www.w3.org/1999/xlink" x="0" y="0" width="600" height="600" viewBox="0, 0, 600, 600">
  <g id="Layer_1">
    <g>
      <path d="M162.69,508.094 L286.117,586.327 L409.966,508.092 L409.966,353.414 L285.834,276.351 L162.69,353.407 z M286.105,594.927 L155.423,512.093 L155.423,349.379 L285.818,267.787 L417.23,349.368 L417.23,512.095 z" fill="#000000" fill-opacity="0.25"/>
      <path d="M225.911,470.962 L218.646,470.962 L218.646,391.752 L225.911,391.752 z" fill="#000000" fill-opacity="0.25"/>
      <path d="M347.254,394.901 L220.361,315.896 L224.203,309.731 L351.096,388.729 z" fill="#000000" fill-opacity="0.25"/>
      <path d="M257.135,411.242 L249.875,411.242 L249.875,372.321 L257.135,372.321 z" fill="#000000" fill-opacity="0.25"/>
      <path d="M289.198,431.499 L281.933,431.499 L281.933,352.361 L289.198,352.361 z" fill="#000000" fill-opacity="0.25"/>
      <path d="M283.869,434.457 L220.306,394.838 L224.145,388.669 L287.712,428.29 z" fill="#000000" fill-opacity="0.25"/>
      <path d="M161.028,513.434 L157.184,507.273 L411.624,348.432 L415.469,354.594 z" fill="#000000" fill-opacity="0.25"/>
      <path d="M161.032,434.455 L157.179,428.29 L283.64,349.28 L287.489,355.443 z" fill="#000000" fill-opacity="0.25"/>
      <g>
        <path d="M263.865,91.906 L140.438,13.673 L16.588,91.908 L16.588,246.586 L140.72,323.649 L263.865,246.593 z M140.45,5.073 L271.131,87.907 L271.131,250.621 L140.737,332.213 L9.325,250.632 L9.325,87.905 z" fill="#000000" fill-opacity="0.25"/>
        <path d="M200.593,129.161 L207.858,129.161 L207.858,208.371 L200.593,208.371 z" fill="#000000" fill-opacity="0.25"/>
        <path d="M79.301,205.099 L206.193,284.104 L202.351,290.269 L75.459,211.271 z" fill="#000000" fill-opacity="0.25"/>
        <path d="M169.369,188.881 L176.63,188.881 L176.63,227.802 L169.369,227.802 z" fill="#000000" fill-opacity="0.25"/>
        <path d="M137.306,168.623 L144.572,168.623 L144.572,247.762 L137.306,247.762 z" fill="#000000" fill-opacity="0.25"/>
        <path d="M142.635,165.666 L206.198,205.285 L202.359,211.454 L138.793,171.833 z" fill="#000000" fill-opacity="0.25"/>
        <path d="M265.476,86.689 L269.32,92.85 L14.88,251.691 L11.035,245.529 z" fill="#000000" fill-opacity="0.25"/>
        <path d="M265.472,165.668 L269.325,171.833 L142.865,250.843 L139.015,244.68 z" fill="#000000" fill-opacity="0.25"/>
      </g>
    </g>
  </g>
</svg>
