<?xml version="1.0" encoding="UTF-8"?>
<!DOCTYPE svg PUBLIC "-//W3C//DTD SVG 1.1//EN" "http://www.w3.org/Graphics/SVG/1.1/DTD/svg11.dtd">
<svg version="1.1" xmlns="http://www.w3.org/2000/svg" xmlns:xlink="http://www.w3.org/1999/xlink" x="0" y="0" width="700" height="400" viewBox="0, 0, 700, 400">
  <g id="Layer_1">
    <path d="M75.852,265.372 L179.901,331.323 L284.307,265.37 L284.307,134.976 L179.663,70.012 L75.852,134.97 z M179.891,338.573 L69.726,268.743 L69.726,131.575 L179.649,62.792 L290.43,131.565 L290.43,268.745 z" fill="#000000"/>
    <path d="M129.19,233.966 L123.065,233.966 L123.065,167.192 L129.19,167.192 z" fill="#000000"/>
    <path d="M231.44,169.95 L124.469,103.348 L127.708,98.151 L234.679,164.747 z" fill="#000000"/>
    <path d="M155.512,183.622 L149.391,183.622 L149.391,150.811 L155.512,150.811 z" fill="#000000"/>
    <path d="M182.541,200.699 L176.416,200.699 L176.416,133.985 L182.541,133.985 z" fill="#000000"/>
    <path d="M178.049,203.192 L124.465,169.793 L127.701,164.592 L181.288,197.993 z" fill="#000000"/>
    <path d="M74.493,269.771 L71.252,264.577 L285.746,130.673 L288.988,135.867 z" fill="#000000"/>
    <path d="M74.496,203.19 L71.248,197.993 L177.855,131.387 L181.1,136.583 z" fill="#000000"/>
    <path d="M401.361,226.965 L401.361,192.882 L386.671,215.182 L386.371,215.182 L371.828,193.107 L371.828,226.965 L360.566,226.965 L360.566,174.759 L372.947,174.759 L386.671,196.834 L400.393,174.759 L412.771,174.759 L412.771,226.965 z" fill="#000000"/>
    <path d="M436.488,226.965 L436.488,174.759 L475.865,174.759 L475.865,184.976 L447.896,184.976 L447.896,195.568 L472.51,195.568 L472.51,205.784 L447.896,205.784 L447.896,216.748 L476.239,216.748 L476.239,226.965 z" fill="#000000"/>
    <path d="M521.284,185.35 L521.284,226.965 L509.799,226.965 L509.799,185.35 L493.913,185.35 L493.913,174.759 L537.17,174.759 L537.17,185.35 z" fill="#000000"/>
    <path d="M557.678,174.759 L569.163,174.759 L569.163,226.965 L557.678,226.965 z" fill="#000000"/>
    <path d="M611.973,227.712 C604.066,227.712 596.086,224.951 589.823,219.358 L596.609,211.229 C601.308,215.107 606.23,217.568 612.196,217.568 C616.895,217.568 619.729,215.703 619.729,212.646 L619.729,212.496 C619.729,209.588 617.939,208.097 609.212,205.858 C598.696,203.173 591.91,200.266 591.91,189.899 L591.91,189.749 C591.91,180.276 599.518,174.014 610.183,174.014 C617.791,174.014 624.278,176.399 629.573,180.65 L623.609,189.302 C618.982,186.095 614.434,184.156 610.032,184.156 C605.633,184.156 603.32,186.169 603.32,188.706 L603.32,188.853 C603.32,192.285 605.559,193.403 614.582,195.716 C625.174,198.476 631.14,202.278 631.14,211.376 L631.14,211.526 C631.14,221.894 623.235,227.712 611.973,227.712" fill="#000000"/>
  </g>
</svg>
