<?xml version="1.0" encoding="UTF-8"?>
<!DOCTYPE svg PUBLIC "-//W3C//DTD SVG 1.1//EN" "http://www.w3.org/Graphics/SVG/1.1/DTD/svg11.dtd">
<svg version="1.1" xmlns="http://www.w3.org/2000/svg" xmlns:xlink="http://www.w3.org/1999/xlink" x="0" y="0" width="600" height="600" viewBox="0, 0, 600, 600">
  <g id="Layer_1">
    <path d="M151.933,439.21 L255.982,505.161 L360.388,439.208 L360.388,308.814 L255.744,243.85 L151.933,308.808 z M255.972,512.411 L145.807,442.581 L145.807,305.413 L255.73,236.63 L366.511,305.403 L366.511,442.583 z" fill="#000000"/>
    <path d="M205.229,407.907 L199.104,407.907 L199.104,341.133 L205.229,341.133 z" fill="#000000"/>
    <path d="M307.521,343.788 L200.55,277.186 L203.789,271.989 L310.76,338.585 z" fill="#000000"/>
    <path d="M231.551,357.563 L225.43,357.563 L225.43,324.753 L231.551,324.753 z" fill="#000000"/>
    <path d="M258.58,374.64 L252.455,374.64 L252.455,307.926 L258.58,307.926 z" fill="#000000"/>
    <path d="M254.088,377.134 L200.504,343.735 L203.74,338.534 L257.327,371.935 z" fill="#000000"/>
    <path d="M150.532,443.712 L147.291,438.518 L361.785,304.614 L365.027,309.809 z" fill="#000000"/>
    <path d="M150.535,377.132 L147.287,371.935 L253.894,305.329 L257.139,310.525 z" fill="#000000"/>
    <g>
      <path d="M237.223,88.362 L133.174,22.411 L28.768,88.364 L28.768,218.758 L133.412,283.722 L237.223,218.764 z M133.184,15.161 L243.349,84.991 L243.349,222.159 L133.426,290.942 L22.645,222.169 L22.645,84.989 z" fill="#000000"/>
      <path d="M183.885,119.768 L190.01,119.768 L190.01,186.542 L183.885,186.542 z" fill="#000000"/>
      <path d="M81.636,183.784 L188.607,250.386 L185.368,255.583 L78.397,188.987 z" fill="#000000"/>
      <path d="M157.563,170.112 L163.684,170.112 L163.684,202.923 L157.563,202.923 z" fill="#000000"/>
      <path d="M130.534,153.035 L136.659,153.035 L136.659,219.749 L130.534,219.749 z" fill="#000000"/>
      <path d="M135.026,150.541 L188.61,183.94 L185.374,189.141 L131.787,155.74 z" fill="#000000"/>
      <path d="M238.582,83.963 L241.823,89.157 L27.329,223.061 L24.087,217.866 z" fill="#000000"/>
      <path d="M238.579,150.543 L241.827,155.74 L135.22,222.346 L131.975,217.15 z" fill="#000000"/>
    </g>
  </g>
</svg>
